<mxfile host="Electron" modified="2023-08-15T15:58:24.894Z" agent="Mozilla/5.0 (Windows NT 10.0; Win64; x64) AppleWebKit/537.36 (KHTML, like Gecko) draw.io/21.2.8 Chrome/112.0.5615.165 Electron/24.2.0 Safari/537.36" etag="qmEmWsZ7n91U3W5ILRjx" version="21.2.8" type="device">
  <diagram name="Page-1" id="9KnuYYRJ5XZbeosx2J67">
    <mxGraphModel dx="1276" dy="614" grid="1" gridSize="10" guides="1" tooltips="1" connect="1" arrows="1" fold="1" page="1" pageScale="1" pageWidth="850" pageHeight="1100" math="0" shadow="0">
      <root>
        <mxCell id="0" />
        <mxCell id="1" parent="0" />
        <mxCell id="8x7ACQgUlwYFm3KpuSdk-1" value="Category" style="swimlane;whiteSpace=wrap;html=1;" parent="1" vertex="1">
          <mxGeometry x="40" y="50" width="220" height="350" as="geometry" />
        </mxCell>
        <mxCell id="8x7ACQgUlwYFm3KpuSdk-3" value="Name: varchar(128)" style="text;html=1;align=center;verticalAlign=middle;resizable=0;points=[];autosize=1;strokeColor=none;fillColor=none;" parent="8x7ACQgUlwYFm3KpuSdk-1" vertex="1">
          <mxGeometry x="7" y="67" width="130" height="30" as="geometry" />
        </mxCell>
        <mxCell id="JT_zJ9hjkNmK0HkgFZ1D-1" value="Image: varchar(256)" style="text;html=1;align=center;verticalAlign=middle;resizable=0;points=[];autosize=1;strokeColor=none;fillColor=none;" parent="8x7ACQgUlwYFm3KpuSdk-1" vertex="1">
          <mxGeometry x="12" y="97" width="130" height="30" as="geometry" />
        </mxCell>
        <mxCell id="JT_zJ9hjkNmK0HkgFZ1D-2" value="CreatedDate: Datetime" style="text;html=1;align=center;verticalAlign=middle;resizable=0;points=[];autosize=1;strokeColor=none;fillColor=none;" parent="8x7ACQgUlwYFm3KpuSdk-1" vertex="1">
          <mxGeometry x="7" y="197" width="150" height="30" as="geometry" />
        </mxCell>
        <mxCell id="JT_zJ9hjkNmK0HkgFZ1D-3" value="UpdatedDate: Datetime, nullable" style="text;html=1;align=center;verticalAlign=middle;resizable=0;points=[];autosize=1;strokeColor=none;fillColor=none;" parent="8x7ACQgUlwYFm3KpuSdk-1" vertex="1">
          <mxGeometry x="9" y="231" width="200" height="30" as="geometry" />
        </mxCell>
        <mxCell id="JT_zJ9hjkNmK0HkgFZ1D-4" value="CreatedBy: varchar(128)" style="text;html=1;align=center;verticalAlign=middle;resizable=0;points=[];autosize=1;strokeColor=none;fillColor=none;" parent="8x7ACQgUlwYFm3KpuSdk-1" vertex="1">
          <mxGeometry x="12" y="264" width="150" height="30" as="geometry" />
        </mxCell>
        <mxCell id="JT_zJ9hjkNmK0HkgFZ1D-7" value="DisplayOrder: int" style="text;html=1;align=center;verticalAlign=middle;resizable=0;points=[];autosize=1;strokeColor=none;fillColor=none;" parent="8x7ACQgUlwYFm3KpuSdk-1" vertex="1">
          <mxGeometry x="12" y="127" width="110" height="30" as="geometry" />
        </mxCell>
        <mxCell id="JT_zJ9hjkNmK0HkgFZ1D-68" value="Status: varchar(32)&amp;nbsp;" style="text;html=1;align=center;verticalAlign=middle;resizable=0;points=[];autosize=1;strokeColor=none;fillColor=none;" parent="8x7ACQgUlwYFm3KpuSdk-1" vertex="1">
          <mxGeometry x="9" y="160" width="130" height="30" as="geometry" />
        </mxCell>
        <mxCell id="8x7ACQgUlwYFm3KpuSdk-2" value="Id: int (PK)" style="text;html=1;align=center;verticalAlign=middle;resizable=0;points=[];autosize=1;strokeColor=none;fillColor=none;" parent="8x7ACQgUlwYFm3KpuSdk-1" vertex="1">
          <mxGeometry x="9" y="37" width="80" height="30" as="geometry" />
        </mxCell>
        <mxCell id="DcbJ9ST1hTQkNllCmmNY-1" value="UpdatedBy: varchar(128)" style="text;html=1;align=center;verticalAlign=middle;resizable=0;points=[];autosize=1;strokeColor=none;fillColor=none;" parent="8x7ACQgUlwYFm3KpuSdk-1" vertex="1">
          <mxGeometry x="7" y="294" width="160" height="30" as="geometry" />
        </mxCell>
        <mxCell id="JT_zJ9hjkNmK0HkgFZ1D-8" value="Product" style="swimlane;whiteSpace=wrap;html=1;" parent="1" vertex="1">
          <mxGeometry x="500" y="50" width="220" height="500" as="geometry" />
        </mxCell>
        <mxCell id="JT_zJ9hjkNmK0HkgFZ1D-9" value="Name: varchar(128)" style="text;html=1;align=center;verticalAlign=middle;resizable=0;points=[];autosize=1;strokeColor=none;fillColor=none;" parent="JT_zJ9hjkNmK0HkgFZ1D-8" vertex="1">
          <mxGeometry x="10" y="100" width="130" height="30" as="geometry" />
        </mxCell>
        <mxCell id="JT_zJ9hjkNmK0HkgFZ1D-11" value="CreatedDate: Datetime" style="text;html=1;align=center;verticalAlign=middle;resizable=0;points=[];autosize=1;strokeColor=none;fillColor=none;" parent="JT_zJ9hjkNmK0HkgFZ1D-8" vertex="1">
          <mxGeometry x="9" y="350" width="150" height="30" as="geometry" />
        </mxCell>
        <mxCell id="JT_zJ9hjkNmK0HkgFZ1D-12" value="UpdatedDate: Datetime, nullable" style="text;html=1;align=center;verticalAlign=middle;resizable=0;points=[];autosize=1;strokeColor=none;fillColor=none;" parent="JT_zJ9hjkNmK0HkgFZ1D-8" vertex="1">
          <mxGeometry x="9" y="385" width="200" height="30" as="geometry" />
        </mxCell>
        <mxCell id="JT_zJ9hjkNmK0HkgFZ1D-13" value="CreatedBy: varchar(128)" style="text;html=1;align=center;verticalAlign=middle;resizable=0;points=[];autosize=1;strokeColor=none;fillColor=none;" parent="JT_zJ9hjkNmK0HkgFZ1D-8" vertex="1">
          <mxGeometry x="13" y="415" width="150" height="30" as="geometry" />
        </mxCell>
        <mxCell id="JT_zJ9hjkNmK0HkgFZ1D-14" value="Description: varchar(max)" style="text;html=1;align=center;verticalAlign=middle;resizable=0;points=[];autosize=1;strokeColor=none;fillColor=none;" parent="JT_zJ9hjkNmK0HkgFZ1D-8" vertex="1">
          <mxGeometry x="13" y="284" width="160" height="30" as="geometry" />
        </mxCell>
        <mxCell id="JT_zJ9hjkNmK0HkgFZ1D-15" value="Id: int (PK)" style="text;html=1;align=center;verticalAlign=middle;resizable=0;points=[];autosize=1;strokeColor=none;fillColor=none;" parent="JT_zJ9hjkNmK0HkgFZ1D-8" vertex="1">
          <mxGeometry x="8" y="37" width="80" height="30" as="geometry" />
        </mxCell>
        <mxCell id="JT_zJ9hjkNmK0HkgFZ1D-18" value="Price: decimal" style="text;html=1;align=center;verticalAlign=middle;resizable=0;points=[];autosize=1;strokeColor=none;fillColor=none;" parent="JT_zJ9hjkNmK0HkgFZ1D-8" vertex="1">
          <mxGeometry x="8" y="194" width="100" height="30" as="geometry" />
        </mxCell>
        <mxCell id="JT_zJ9hjkNmK0HkgFZ1D-27" value="CategoryId: int (FK)" style="text;html=1;align=center;verticalAlign=middle;resizable=0;points=[];autosize=1;strokeColor=none;fillColor=none;" parent="JT_zJ9hjkNmK0HkgFZ1D-8" vertex="1">
          <mxGeometry x="8" y="65" width="130" height="30" as="geometry" />
        </mxCell>
        <mxCell id="JT_zJ9hjkNmK0HkgFZ1D-100" value="QuantityInStock: int" style="text;html=1;align=center;verticalAlign=middle;resizable=0;points=[];autosize=1;strokeColor=none;fillColor=none;" parent="JT_zJ9hjkNmK0HkgFZ1D-8" vertex="1">
          <mxGeometry x="8" y="224" width="130" height="30" as="geometry" />
        </mxCell>
        <mxCell id="H7cz0eLanwoRrVoWgnAf-1" value="DisplayOrder: int" style="text;html=1;align=center;verticalAlign=middle;resizable=0;points=[];autosize=1;strokeColor=none;fillColor=none;" parent="JT_zJ9hjkNmK0HkgFZ1D-8" vertex="1">
          <mxGeometry x="13" y="254" width="110" height="30" as="geometry" />
        </mxCell>
        <mxCell id="DcbJ9ST1hTQkNllCmmNY-2" value="UpdatedBy: varchar(128)" style="text;html=1;align=center;verticalAlign=middle;resizable=0;points=[];autosize=1;strokeColor=none;fillColor=none;" parent="JT_zJ9hjkNmK0HkgFZ1D-8" vertex="1">
          <mxGeometry x="8" y="445" width="160" height="30" as="geometry" />
        </mxCell>
        <mxCell id="9p8lHd6fLVj09BqkZxSR-1" value="Status: varchar(32)&amp;nbsp;" style="text;html=1;align=center;verticalAlign=middle;resizable=0;points=[];autosize=1;strokeColor=none;fillColor=none;" parent="JT_zJ9hjkNmK0HkgFZ1D-8" vertex="1">
          <mxGeometry x="8" y="314" width="130" height="30" as="geometry" />
        </mxCell>
        <mxCell id="m40paRKWfrVoao5xI0b9-2" value="ThumbnailImage: varchar(256)" style="text;html=1;align=center;verticalAlign=middle;resizable=0;points=[];autosize=1;strokeColor=none;fillColor=none;" parent="JT_zJ9hjkNmK0HkgFZ1D-8" vertex="1">
          <mxGeometry x="8" y="132" width="190" height="30" as="geometry" />
        </mxCell>
        <mxCell id="m40paRKWfrVoao5xI0b9-3" value="OriginalImage: varchar(256)" style="text;html=1;align=center;verticalAlign=middle;resizable=0;points=[];autosize=1;strokeColor=none;fillColor=none;" parent="JT_zJ9hjkNmK0HkgFZ1D-8" vertex="1">
          <mxGeometry x="8" y="164" width="170" height="30" as="geometry" />
        </mxCell>
        <mxCell id="JT_zJ9hjkNmK0HkgFZ1D-28" value="User" style="swimlane;whiteSpace=wrap;html=1;" parent="1" vertex="1">
          <mxGeometry x="49" y="600" width="202" height="430" as="geometry" />
        </mxCell>
        <mxCell id="JT_zJ9hjkNmK0HkgFZ1D-29" value="Email: varchar(64), unique" style="text;html=1;align=center;verticalAlign=middle;resizable=0;points=[];autosize=1;strokeColor=none;fillColor=none;" parent="JT_zJ9hjkNmK0HkgFZ1D-28" vertex="1">
          <mxGeometry x="6" y="97" width="160" height="30" as="geometry" />
        </mxCell>
        <mxCell id="JT_zJ9hjkNmK0HkgFZ1D-30" value="Name: varchar(128)" style="text;html=1;align=center;verticalAlign=middle;resizable=0;points=[];autosize=1;strokeColor=none;fillColor=none;" parent="JT_zJ9hjkNmK0HkgFZ1D-28" vertex="1">
          <mxGeometry x="4" y="67" width="130" height="30" as="geometry" />
        </mxCell>
        <mxCell id="JT_zJ9hjkNmK0HkgFZ1D-34" value="Phone: varchar(32)" style="text;html=1;align=center;verticalAlign=middle;resizable=0;points=[];autosize=1;strokeColor=none;fillColor=none;" parent="JT_zJ9hjkNmK0HkgFZ1D-28" vertex="1">
          <mxGeometry y="160" width="130" height="30" as="geometry" />
        </mxCell>
        <mxCell id="JT_zJ9hjkNmK0HkgFZ1D-35" value="Id: int (PK)" style="text;html=1;align=center;verticalAlign=middle;resizable=0;points=[];autosize=1;strokeColor=none;fillColor=none;" parent="JT_zJ9hjkNmK0HkgFZ1D-28" vertex="1">
          <mxGeometry x="7" y="37" width="80" height="30" as="geometry" />
        </mxCell>
        <mxCell id="JT_zJ9hjkNmK0HkgFZ1D-36" value="Password: varchar(512)" style="text;html=1;align=center;verticalAlign=middle;resizable=0;points=[];autosize=1;strokeColor=none;fillColor=none;" parent="JT_zJ9hjkNmK0HkgFZ1D-28" vertex="1">
          <mxGeometry x="4" y="221" width="150" height="30" as="geometry" />
        </mxCell>
        <mxCell id="JT_zJ9hjkNmK0HkgFZ1D-31" value="CreatedDate: Datetime" style="text;html=1;align=center;verticalAlign=middle;resizable=0;points=[];autosize=1;strokeColor=none;fillColor=none;" parent="JT_zJ9hjkNmK0HkgFZ1D-28" vertex="1">
          <mxGeometry y="281" width="150" height="30" as="geometry" />
        </mxCell>
        <mxCell id="JT_zJ9hjkNmK0HkgFZ1D-32" value="UpdatedDate: Datetime, nullable" style="text;html=1;align=center;verticalAlign=middle;resizable=0;points=[];autosize=1;strokeColor=none;fillColor=none;" parent="JT_zJ9hjkNmK0HkgFZ1D-28" vertex="1">
          <mxGeometry x="2" y="316" width="200" height="30" as="geometry" />
        </mxCell>
        <mxCell id="JT_zJ9hjkNmK0HkgFZ1D-33" value="CreatedBy: varchar(256)" style="text;html=1;align=center;verticalAlign=middle;resizable=0;points=[];autosize=1;strokeColor=none;fillColor=none;" parent="JT_zJ9hjkNmK0HkgFZ1D-28" vertex="1">
          <mxGeometry x="9" y="349" width="150" height="30" as="geometry" />
        </mxCell>
        <mxCell id="JT_zJ9hjkNmK0HkgFZ1D-38" value="Avatar: varchar(128): nullable" style="text;html=1;align=center;verticalAlign=middle;resizable=0;points=[];autosize=1;strokeColor=none;fillColor=none;" parent="JT_zJ9hjkNmK0HkgFZ1D-28" vertex="1">
          <mxGeometry x="2" y="188" width="180" height="30" as="geometry" />
        </mxCell>
        <mxCell id="H7cz0eLanwoRrVoWgnAf-2" value="Role: varchar(32)" style="text;html=1;align=center;verticalAlign=middle;resizable=0;points=[];autosize=1;strokeColor=none;fillColor=none;" parent="JT_zJ9hjkNmK0HkgFZ1D-28" vertex="1">
          <mxGeometry x="1" y="130" width="120" height="30" as="geometry" />
        </mxCell>
        <mxCell id="DcbJ9ST1hTQkNllCmmNY-4" value="UpdatedBy: varchar(128)" style="text;html=1;align=center;verticalAlign=middle;resizable=0;points=[];autosize=1;strokeColor=none;fillColor=none;" parent="JT_zJ9hjkNmK0HkgFZ1D-28" vertex="1">
          <mxGeometry x="7" y="379" width="160" height="30" as="geometry" />
        </mxCell>
        <mxCell id="9p8lHd6fLVj09BqkZxSR-2" value="Status: varchar(32)&amp;nbsp;" style="text;html=1;align=center;verticalAlign=middle;resizable=0;points=[];autosize=1;strokeColor=none;fillColor=none;" parent="JT_zJ9hjkNmK0HkgFZ1D-28" vertex="1">
          <mxGeometry y="251" width="130" height="30" as="geometry" />
        </mxCell>
        <mxCell id="JT_zJ9hjkNmK0HkgFZ1D-56" value="Order" style="swimlane;whiteSpace=wrap;html=1;startSize=23;" parent="1" vertex="1">
          <mxGeometry x="445" y="600" width="225" height="270" as="geometry" />
        </mxCell>
        <mxCell id="JT_zJ9hjkNmK0HkgFZ1D-60" value="Id: int (PK)" style="text;html=1;align=center;verticalAlign=middle;resizable=0;points=[];autosize=1;strokeColor=none;fillColor=none;" parent="JT_zJ9hjkNmK0HkgFZ1D-56" vertex="1">
          <mxGeometry x="4" y="37" width="80" height="30" as="geometry" />
        </mxCell>
        <mxCell id="JT_zJ9hjkNmK0HkgFZ1D-63" value="CreatedDate: Datetime" style="text;html=1;align=center;verticalAlign=middle;resizable=0;points=[];autosize=1;strokeColor=none;fillColor=none;" parent="JT_zJ9hjkNmK0HkgFZ1D-56" vertex="1">
          <mxGeometry x="2" y="129" width="150" height="30" as="geometry" />
        </mxCell>
        <mxCell id="JT_zJ9hjkNmK0HkgFZ1D-64" value="UpdatedDate: Datetime, nullable" style="text;html=1;align=center;verticalAlign=middle;resizable=0;points=[];autosize=1;strokeColor=none;fillColor=none;" parent="JT_zJ9hjkNmK0HkgFZ1D-56" vertex="1">
          <mxGeometry x="2" y="163" width="200" height="30" as="geometry" />
        </mxCell>
        <mxCell id="JT_zJ9hjkNmK0HkgFZ1D-65" value="CreatedBy: varchar(256)" style="text;html=1;align=center;verticalAlign=middle;resizable=0;points=[];autosize=1;strokeColor=none;fillColor=none;" parent="JT_zJ9hjkNmK0HkgFZ1D-56" vertex="1">
          <mxGeometry x="6" y="196" width="150" height="30" as="geometry" />
        </mxCell>
        <mxCell id="JT_zJ9hjkNmK0HkgFZ1D-80" value="UserId: int (PK)" style="text;html=1;align=center;verticalAlign=middle;resizable=0;points=[];autosize=1;strokeColor=none;fillColor=none;" parent="JT_zJ9hjkNmK0HkgFZ1D-56" vertex="1">
          <mxGeometry y="67" width="110" height="30" as="geometry" />
        </mxCell>
        <mxCell id="DcbJ9ST1hTQkNllCmmNY-6" value="UpdatedBy: varchar(128)" style="text;html=1;align=center;verticalAlign=middle;resizable=0;points=[];autosize=1;strokeColor=none;fillColor=none;" parent="JT_zJ9hjkNmK0HkgFZ1D-56" vertex="1">
          <mxGeometry x="3" y="226" width="160" height="30" as="geometry" />
        </mxCell>
        <mxCell id="9p8lHd6fLVj09BqkZxSR-3" value="Status: varchar(32)&amp;nbsp;" style="text;html=1;align=center;verticalAlign=middle;resizable=0;points=[];autosize=1;strokeColor=none;fillColor=none;" parent="JT_zJ9hjkNmK0HkgFZ1D-56" vertex="1">
          <mxGeometry y="100" width="130" height="30" as="geometry" />
        </mxCell>
        <mxCell id="JT_zJ9hjkNmK0HkgFZ1D-71" value="OrderDetail" style="swimlane;whiteSpace=wrap;html=1;startSize=23;" parent="1" vertex="1">
          <mxGeometry x="445" y="1010" width="230" height="310" as="geometry" />
        </mxCell>
        <mxCell id="JT_zJ9hjkNmK0HkgFZ1D-72" value="Quantity: int" style="text;html=1;align=center;verticalAlign=middle;resizable=0;points=[];autosize=1;" parent="JT_zJ9hjkNmK0HkgFZ1D-71" vertex="1">
          <mxGeometry x="-1" y="127" width="90" height="30" as="geometry" />
        </mxCell>
        <mxCell id="JT_zJ9hjkNmK0HkgFZ1D-73" value="OrderId: int (FK)" style="text;html=1;align=center;verticalAlign=middle;resizable=0;points=[];autosize=1;strokeColor=none;fillColor=none;" parent="JT_zJ9hjkNmK0HkgFZ1D-71" vertex="1">
          <mxGeometry x="2" y="66" width="110" height="30" as="geometry" />
        </mxCell>
        <mxCell id="JT_zJ9hjkNmK0HkgFZ1D-74" value="Id: int (PK)" style="text;html=1;align=center;verticalAlign=middle;resizable=0;points=[];autosize=1;strokeColor=none;fillColor=none;" parent="JT_zJ9hjkNmK0HkgFZ1D-71" vertex="1">
          <mxGeometry x="4" y="37" width="80" height="30" as="geometry" />
        </mxCell>
        <mxCell id="JT_zJ9hjkNmK0HkgFZ1D-76" value="CreatedDate: Datetime" style="text;html=1;align=center;verticalAlign=middle;resizable=0;points=[];autosize=1;strokeColor=none;fillColor=none;" parent="JT_zJ9hjkNmK0HkgFZ1D-71" vertex="1">
          <mxGeometry x="2" y="162" width="150" height="30" as="geometry" />
        </mxCell>
        <mxCell id="JT_zJ9hjkNmK0HkgFZ1D-77" value="UpdatedDate: Datetime, nullable" style="text;html=1;align=center;verticalAlign=middle;resizable=0;points=[];autosize=1;strokeColor=none;fillColor=none;" parent="JT_zJ9hjkNmK0HkgFZ1D-71" vertex="1">
          <mxGeometry x="2" y="196" width="200" height="30" as="geometry" />
        </mxCell>
        <mxCell id="JT_zJ9hjkNmK0HkgFZ1D-78" value="CreatedBy: varchar(256)" style="text;html=1;align=center;verticalAlign=middle;resizable=0;points=[];autosize=1;strokeColor=none;fillColor=none;" parent="JT_zJ9hjkNmK0HkgFZ1D-71" vertex="1">
          <mxGeometry x="6" y="229" width="150" height="30" as="geometry" />
        </mxCell>
        <mxCell id="JT_zJ9hjkNmK0HkgFZ1D-79" value="ProductId: int (FK)" style="text;html=1;align=center;verticalAlign=middle;resizable=0;points=[];autosize=1;strokeColor=none;fillColor=none;" parent="JT_zJ9hjkNmK0HkgFZ1D-71" vertex="1">
          <mxGeometry x="2" y="96" width="120" height="30" as="geometry" />
        </mxCell>
        <mxCell id="DcbJ9ST1hTQkNllCmmNY-7" value="UpdatedBy: varchar(128)" style="text;html=1;align=center;verticalAlign=middle;resizable=0;points=[];autosize=1;strokeColor=none;fillColor=none;" parent="JT_zJ9hjkNmK0HkgFZ1D-71" vertex="1">
          <mxGeometry y="259" width="160" height="30" as="geometry" />
        </mxCell>
        <mxCell id="3pruqe6UlNgRgqma_wQl-1" value="" style="endArrow=classic;html=1;rounded=0;" edge="1" parent="1">
          <mxGeometry width="50" height="50" relative="1" as="geometry">
            <mxPoint x="260" y="250" as="sourcePoint" />
            <mxPoint x="500" y="250" as="targetPoint" />
          </mxGeometry>
        </mxCell>
        <mxCell id="3pruqe6UlNgRgqma_wQl-2" value="1" style="text;html=1;align=center;verticalAlign=middle;resizable=0;points=[];autosize=1;strokeColor=none;fillColor=none;" vertex="1" parent="1">
          <mxGeometry x="263" y="218" width="30" height="30" as="geometry" />
        </mxCell>
        <mxCell id="3pruqe6UlNgRgqma_wQl-3" value="n" style="text;html=1;align=center;verticalAlign=middle;resizable=0;points=[];autosize=1;strokeColor=none;fillColor=none;" vertex="1" parent="1">
          <mxGeometry x="455" y="218" width="30" height="30" as="geometry" />
        </mxCell>
        <mxCell id="3pruqe6UlNgRgqma_wQl-4" value="" style="endArrow=classic;html=1;rounded=0;" edge="1" parent="1">
          <mxGeometry width="50" height="50" relative="1" as="geometry">
            <mxPoint x="250" y="710" as="sourcePoint" />
            <mxPoint x="445" y="710" as="targetPoint" />
          </mxGeometry>
        </mxCell>
        <mxCell id="3pruqe6UlNgRgqma_wQl-5" value="1" style="text;html=1;align=center;verticalAlign=middle;resizable=0;points=[];autosize=1;strokeColor=none;fillColor=none;" vertex="1" parent="1">
          <mxGeometry x="251" y="682" width="30" height="30" as="geometry" />
        </mxCell>
        <mxCell id="3pruqe6UlNgRgqma_wQl-6" value="n" style="text;html=1;align=center;verticalAlign=middle;resizable=0;points=[];autosize=1;strokeColor=none;fillColor=none;" vertex="1" parent="1">
          <mxGeometry x="405" y="678" width="30" height="30" as="geometry" />
        </mxCell>
        <mxCell id="3pruqe6UlNgRgqma_wQl-7" value="" style="endArrow=classic;html=1;rounded=0;exitX=0.5;exitY=1;exitDx=0;exitDy=0;entryX=0.5;entryY=0;entryDx=0;entryDy=0;" edge="1" parent="1" source="JT_zJ9hjkNmK0HkgFZ1D-56" target="JT_zJ9hjkNmK0HkgFZ1D-71">
          <mxGeometry width="50" height="50" relative="1" as="geometry">
            <mxPoint x="475" y="950" as="sourcePoint" />
            <mxPoint x="670" y="950" as="targetPoint" />
          </mxGeometry>
        </mxCell>
        <mxCell id="3pruqe6UlNgRgqma_wQl-8" value="1" style="text;html=1;align=center;verticalAlign=middle;resizable=0;points=[];autosize=1;strokeColor=none;fillColor=none;" vertex="1" parent="1">
          <mxGeometry x="531" y="868" width="30" height="30" as="geometry" />
        </mxCell>
        <mxCell id="3pruqe6UlNgRgqma_wQl-9" value="n" style="text;html=1;align=center;verticalAlign=middle;resizable=0;points=[];autosize=1;strokeColor=none;fillColor=none;" vertex="1" parent="1">
          <mxGeometry x="529" y="978" width="30" height="30" as="geometry" />
        </mxCell>
      </root>
    </mxGraphModel>
  </diagram>
</mxfile>
